<svg width="23" height="21" viewBox="0 0 23 21" fill="none" xmlns="http://www.w3.org/2000/svg">
<path d="M23 10.5C23 16.299 18.299 21 12.5 21L10.5 21C4.70101 21 0 16.299 0 10.5V10.5C0 4.70101 4.70101 0 10.5 0L12.5 0C18.299 0 23 4.70101 23 10.5V10.5Z" fill="#F54748"/>
<path fill-rule="evenodd" clip-rule="evenodd" d="M11.4998 7.00001C11.7183 7.00001 11.9358 7.06739 12.1131 7.20301L17.8631 11.578C18.2694 11.8869 18.325 12.439 17.9858 12.81C17.6475 13.181 17.0437 13.2309 16.6364 12.922L11.4892 9.00551L6.35064 12.7811C5.93855 13.0839 5.3348 13.0244 5.00322 12.6481C4.67164 12.2719 4.7368 11.7215 5.14889 11.4179L10.8989 7.19339C11.0743 7.06476 11.287 7.00001 11.4998 7.00001" fill="white"/>
<mask id="mask0_327:1903" style="mask-type:alpha" maskUnits="userSpaceOnUse" x="4" y="7" width="15" height="7">
<path fill-rule="evenodd" clip-rule="evenodd" d="M11.4998 7.00001C11.7183 7.00001 11.9358 7.06739 12.1131 7.20301L17.8631 11.578C18.2694 11.8869 18.325 12.439 17.9858 12.81C17.6475 13.181 17.0437 13.2309 16.6364 12.922L11.4892 9.00551L6.35064 12.7811C5.93855 13.0839 5.3348 13.0244 5.00322 12.6481C4.67164 12.2719 4.7368 11.7215 5.14889 11.4179L10.8989 7.19339C11.0743 7.06476 11.287 7.00001 11.4998 7.00001" fill="white"/>
</mask>
<g mask="url(#mask0_327:1903)">
<rect x="23" y="21" width="23" height="21" transform="rotate(-180 23 21)" fill="white"/>
</g>
</svg>
