<svg width="24" height="21" viewBox="0 0 24 21" fill="none" xmlns="http://www.w3.org/2000/svg">
<path d="M18.8789 7.62897L18.9784 7.63015C19.3475 7.65685 19.6304 7.92501 19.65 8.2478L19.6405 8.42777L19.326 11.7976L18.9961 15.0862C18.9263 15.7427 18.8638 16.2964 18.8099 16.7323C18.6225 18.2514 17.4955 19.1908 15.7966 19.2186C13.1494 19.2614 10.6048 19.261 8.13373 19.2142C6.48398 19.1839 5.37366 18.2343 5.18955 16.7385L5.0623 15.6364L4.83994 13.4986L4.61216 11.1528L4.35172 8.33689C4.31935 7.97561 4.61951 7.65918 5.02215 7.63014C5.39123 7.60351 5.7183 7.82761 5.79519 8.14343L5.82511 8.40151L6.06966 11.0414L6.33669 13.7776C6.45646 14.9622 6.56034 15.9208 6.64346 16.5942C6.74838 17.4466 7.26138 17.8853 8.16411 17.9019C10.6159 17.9483 13.1415 17.9488 15.7701 17.9063C16.7277 17.8906 17.2489 17.4562 17.356 16.5877L17.4827 15.4915C17.5198 15.1537 17.5594 14.7807 17.6013 14.3756L17.8686 11.6846L18.1906 8.23156C18.2204 7.90039 18.5192 7.64654 18.8789 7.62897ZM3.73139 6.11554C3.32745 6.11554 3 5.82171 3 5.45926C3 5.12701 3.27515 4.85243 3.63214 4.80898L3.73139 4.80299H6.91772C7.29636 4.80299 7.62785 4.58437 7.74642 4.26938L7.77543 4.17211L8.02304 3.06716C8.24111 2.33535 8.9492 1.81431 9.779 1.75554L9.93592 1.75H14.0639C14.9075 1.75 15.6523 2.22799 15.9391 2.96659L15.9874 3.10808L16.2243 4.17185C16.2987 4.50513 16.6025 4.75405 16.9701 4.79655L17.0821 4.80299H20.2686C20.6725 4.80299 21 5.09681 21 5.45926C21 5.79151 20.7248 6.06609 20.3679 6.10954L20.2686 6.11554H3.73139ZM14.0639 3.06255H9.93592C9.7307 3.06255 9.54829 3.17032 9.47252 3.30577L9.44682 3.36528L9.20979 4.42959C9.1808 4.55949 9.13879 4.68458 9.08512 4.80385L14.9148 4.80402C14.8813 4.7296 14.8523 4.65292 14.8282 4.57422L14.79 4.42932L14.5636 3.4062C14.5107 3.22867 14.3473 3.09871 14.1502 3.06899L14.0639 3.06255Z" fill="#F54748"/>
</svg>
