<svg width="23" height="21" viewBox="0 0 23 21" fill="none" xmlns="http://www.w3.org/2000/svg">
<path d="M0 10.5C0 4.70101 4.70101 0 10.5 0L12.5 0C18.299 0 23 4.70101 23 10.5V10.5C23 16.299 18.299 21 12.5 21H10.5C4.70101 21 0 16.299 0 10.5V10.5Z" fill="#F54748"/>
<path fill-rule="evenodd" clip-rule="evenodd" d="M11.5002 14C11.2817 14 11.0642 13.9326 10.8869 13.797L5.13691 9.42199C4.73057 9.11311 4.67499 8.56099 5.01424 8.18999C5.35253 7.81899 5.95628 7.76911 6.36357 8.07799L11.5108 11.9945L16.6494 8.21886C17.0614 7.91611 17.6652 7.97561 17.9968 8.35186C18.3284 8.72811 18.2632 9.27849 17.8511 9.58211L12.1011 13.8066C11.9257 13.9352 11.713 14 11.5002 14" fill="white"/>
<mask id="mask0_327:1893" style="mask-type:alpha" maskUnits="userSpaceOnUse" x="4" y="7" width="15" height="7">
<path fill-rule="evenodd" clip-rule="evenodd" d="M11.5002 14C11.2817 14 11.0642 13.9326 10.8869 13.797L5.13691 9.42199C4.73057 9.11311 4.67499 8.56099 5.01424 8.18999C5.35253 7.81899 5.95628 7.76911 6.36357 8.07799L11.5108 11.9945L16.6494 8.21886C17.0614 7.91611 17.6652 7.97561 17.9968 8.35186C18.3284 8.72811 18.2632 9.27849 17.8511 9.58211L12.1011 13.8066C11.9257 13.9352 11.713 14 11.5002 14" fill="white"/>
</mask>
<g mask="url(#mask0_327:1893)">
<rect width="23" height="21" fill="white"/>
</g>
</svg>
