<?xml version="1.0" encoding="UTF-8"?><svg xmlns="http://www.w3.org/2000/svg" xmlns:xlink="http://www.w3.org/1999/xlink" height="227.6" preserveAspectRatio="xMidYMid meet" version="1.1" viewBox="110.2 99.3 215.2 227.6" width="215.2" zoomAndPan="magnify">
 <g id="surface1">
  <g id="change1_1"><path d="m325.43 201.85c0 4.18-3.2 7.57-7.14 7.57h-200.9c-3.95 0-7.15-3.39-7.15-7.57v-9.54c0-4.19 3.2-7.58 7.15-7.58h200.9c3.94 0 7.14 3.39 7.14 7.58v9.54" fill="#ea8342"/></g>
  <g id="change2_1"><path d="m282.39 184.33c0 0.28-0.19 0.4-0.41 0.4h-16.37c-0.23 0-0.41-0.12-0.41-0.4v-0.82c0-0.28 0.18-0.41 0.41-0.41h16.37c0.22 0 0.41 0.13 0.41 0.41v0.82" fill="#7cb4d4"/></g>
  <g id="change2_2"><path d="m288.63 175.97c-0.32 0-0.62-0.03-0.92-0.09 0.93-2.65 1.29-5.69 1.43-8.81 2.32 0.01 4.79 0.13 4.79 2.42 0 2.46-2.84 6.48-5.3 6.48zm0.57-11.42c0.01-0.44 0.01-0.88 0.01-1.32 0-0.11 0-0.22-0.01-0.33h-30.97c-0.01 0.11-0.01 0.22-0.01 0.33 0 10.48 0.98 21.5 15.49 21.5 7.01 0 10.86-2.61 12.98-6.51 0.61 0.18 1.26 0.28 1.94 0.28 3.85 0 8.14-6.04 8.14-9.89 0-3.66-3.88-4.03-7.57-4.06" fill="#7cb4d4"/></g>
  <g id="change2_3"><path d="m158.91 184.33c0 0.28 0.18 0.4 0.41 0.4h16.37c0.22 0 0.41-0.12 0.41-0.4v-0.82c0-0.28-0.19-0.41-0.41-0.41h-16.37c-0.23 0-0.41 0.13-0.41 0.41v0.82" fill="#7cb4d4"/></g>
  <g id="change2_4"><path d="m147.37 169.49c0-2.29 2.46-2.41 4.79-2.42 0.13 3.12 0.5 6.16 1.42 8.81-0.29 0.06-0.6 0.09-0.91 0.09-2.46 0-5.3-4.02-5.3-6.48zm-2.84-0.88c0 3.85 4.29 9.89 8.14 9.89 0.67 0 1.32-0.1 1.94-0.28 2.11 3.9 5.97 6.51 12.97 6.51 14.52 0 15.49-11.02 15.49-21.5v-0.33h-30.98v0.33 1.32c-3.69 0.03-7.56 0.4-7.56 4.06" fill="#7cb4d4"/></g>
  <g id="change3_1"><path d="m174.53 244.81c6.58 0.13 13.16-0.16 19.7-0.87 12.1-1.32 24.06-3.89 36.27-3.78 10.5 0.09 20.97 1.43 31.27 3.44 3.12 0.61 6.69 1.29 9.82 2.1 0.04-0.74 0-1.49 0-2.29v-58.68h-107.79v57.52c3.52 1.22 7.13 2.49 10.73 2.56" fill="#e0464c"/></g>
  <path d="m2189.9 2678.1v400.5" fill="none" stroke="#53c285" stroke-linecap="round" stroke-linejoin="round" stroke-miterlimit="10" stroke-width="15.019" transform="matrix(.1 0 0 -.1 0 425.2)"/>
  <g id="change4_1"><path d="m202.82 135.3c2.52 2.52 5.98 2.28 6.64 1.62 0.63-0.62 0.9-4.12-1.62-6.63-2.51-2.52-8.31-3.3-8.31-3.3s0.78 5.8 3.29 8.31" fill="#53c285"/></g>
  <g id="change4_2"><path d="m226.03 135.55c-2.94 2.01-6.3 1.15-6.82 0.38-0.5-0.73-0.13-4.22 2.81-6.23 2.93-2.01 8.77-1.72 8.77-1.72s-1.83 5.56-4.76 7.57" fill="#53c285"/></g>
  <path d="m2190.2 2792.4c0.3 26.9-0.9 53.3-33.9 60-27.6 5.6-50.1 3.4-65.2 33.5" fill="none" stroke="#53c285" stroke-linecap="round" stroke-linejoin="round" stroke-miterlimit="10" stroke-width="15.019" transform="matrix(.1 0 0 -.1 0 425.2)"/>
  <g id="change3_2"><path d="m233.19 112.73c-0.03-0.52-1.87-1.88-5.42-2 2.81-2.17 3.53-4.33 3.23-4.8-0.28-0.44-2.55-0.74-5.71 0.87 1.42-3.26 1-5.5 0.51-5.76-0.46-0.25-2.59 0.58-4.59 3.51-0.32-3.53-1.77-5.292-2.32-5.292-0.47 0-1.68 1.392-2.18 4.192-1.59-2.34-3.25-3.12-3.69-2.92-0.39 0.18-0.87 1.66-0.43 4-2.04-1.24-3.58-1.32-3.9-0.99-0.34 0.34-0.17 2.35 1.7 4.83-3.06-0.57-4.93 0.17-5.09 0.66-0.17 0.5 1.03 2.45 4.28 3.89-3.42 0.95-4.89 2.69-4.79 3.24 0.09 0.51 2.09 1.64 5.62 1.34-2.53 2.48-2.98 4.71-2.64 5.14 0.34 0.41 2.63 0.43 5.58-1.54-1.03 3.4-0.34 5.57 0.17 5.78 0.49 0.2 2.51-0.88 4.14-4.04 0.75 3.47 2.39 5.04 2.94 4.98 0.52-0.07 1.77-1.98 1.68-5.53 2.33 2.67 4.52 3.26 4.98 2.93 0.42-0.3 0.59-2.59-1.21-5.65 3.33 1.22 5.54 0.67 5.78 0.17 0.23-0.47-0.73-2.55-3.78-4.37 3.51-0.54 5.18-2.08 5.14-2.64" fill="#e0464c"/></g>
  <g id="change5_1"><path d="m221.35 113.54c0 1.3-1.06 2.36-2.36 2.36-1.31 0-2.37-1.06-2.37-2.36 0-1.31 1.06-2.36 2.37-2.36 1.3 0 2.36 1.05 2.36 2.36" fill="#f8a64b"/></g>
  <g id="change1_2"><path d="m198.77 148.5l4.52 32.51c0 2.01 1.82 3.64 4.06 3.64h20.98c2.24 0 4.05-1.63 4.05-3.64l4.52-32.51h-38.13" fill="#ea8342"/></g>
  <g id="change5_2"><path d="m239.26 151.47c0 1.09-0.64 1.98-1.42 1.98h-40c-0.79 0-1.43-0.89-1.43-1.98v-2.49c0-1.09 0.64-1.97 1.43-1.97h40c0.78 0 1.42 0.88 1.42 1.97v2.49" fill="#f8a64b"/></g>
  <g id="change1_3"><path d="m124.59 325.52c-1.36-0.76-2.19-3.08-2.11-5.44l4.18-118.06c0.18-2.32 1.52-4.1 3.01-3.98l13.02 0.99c1.48 0.11 2.54 2.08 2.36 4.4 0 0-13.81 117.24-13.82 117.32-0.48 4.13-4.21 6.13-6.64 4.77" fill="#ea8342"/></g>
  <g id="change1_4"><path d="m311.09 325.52c1.36-0.76 2.19-3.08 2.11-5.44-0.01 0-4.19-118.06-4.19-118.06-0.17-2.32-1.52-4.1-3-3.98l-13.02 0.99c-1.48 0.11-2.54 2.08-2.37 4.4 0 0 13.81 117.24 13.83 117.32 0.48 4.13 4.21 6.13 6.64 4.77" fill="#ea8342"/></g>
 </g>
</svg>